<svg xmlns="http://www.w3.org/2000/svg" width="124.789" height="38.452" viewBox="0 0 124.789 38.452">
  <g id="Group_3394" data-name="Group 3394" transform="translate(-80 -2.902)">
    <g id="Group_2347" data-name="Group 2347" transform="translate(80 2.902)">
      <g id="Group_2346" data-name="Group 2346">
        <path id="Path_14076" data-name="Path 14076" d="M217.989,330.891l-.17-3.685a30.758,30.758,0,0,0-3.28-4.451c-.428-.48-.873-.955-1.347-1.423a13.79,13.79,0,0,1,3.476-1.745l-.583-3.721-2.688-2.1a16.239,16.239,0,0,0-4.993.095,17.19,17.19,0,0,0-2.659-5.837l-3.315-1.81-4.372.8a34.47,34.47,0,0,1,.688,5.592,53.047,53.047,0,0,0-10.648-2.168l-3.749,1.392-1.386,4.635a95.573,95.573,0,0,1,10.159,3.529c-.439.261-.881.529-1.322.806a51.874,51.874,0,0,0-9.756,7.692l.42,6.176c5.64-5.644,16.49-13.832,22.834-16.358A60.61,60.61,0,0,1,217.989,330.891Z" transform="translate(-182.042 -306.212)" fill="#008ec8"/>
        <path id="Path_14077" data-name="Path 14077" d="M208.908,349.271a61.953,61.953,0,0,0,1.694-11.255,57.32,57.32,0,0,1,4.826,4.46l2.746-3.575a55.06,55.06,0,0,0-11.251-9.612,40.475,40.475,0,0,0-5.765,2.927l-1.168-1.05c-4.091,1.961-10.5,6.325-16.734,11.613l6.108,2.871a67.374,67.374,0,0,1,9.667-7.1c-.3,4.209-.806,8.592-1.26,11.42l6.508,2.222Z" transform="translate(-182.438 -313.742)" fill="#00325b"/>
      </g>
    </g>
    <g id="Group_2350" data-name="Group 2350" transform="translate(123.667 18.178)">
      <g id="Group_2348" data-name="Group 2348">
        <path id="Path_14078" data-name="Path 14078" d="M249.232,334.165v.139c0,.642.288.748,1.112.748h2.98c.57,0,.814-.17.814-.641,0-.568-.374-.652-1.142-.675l-3.732-.116c-1.807-.054-2.383-.534-2.383-2.319a2.43,2.43,0,0,1,.544-1.816c.568-.546,1.423-.6,2.673-.6h3.624c1.764,0,2.532.587,2.532,2.084,0,.127-.01.278-.024.428h-2.287v-.033a.682.682,0,0,0-.777-.769h-2.738c-.738,0-1.122.063-1.122.608,0,.482.277.621.93.642l3.9.1c1.785.045,2.426.706,2.426,2.523a2.037,2.037,0,0,1-.876,2.01,4.788,4.788,0,0,1-2.4.373h-3.166c-2.4,0-3.258-.363-3.258-2.063,0-.085.01-.3.033-.619Z" transform="translate(-246.86 -328.886)" fill="#00325b"/>
        <path id="Path_14079" data-name="Path 14079" d="M269.5,331.914l3.111-2.884h3.152l-4.2,3.835,4.756,3.933h-3.3L269.5,333.86h-.993V336.8h-2.373V329.03h2.373v2.884Z" transform="translate(-253.149 -328.933)" fill="#00325b"/>
        <path id="Path_14080" data-name="Path 14080" d="M285.264,336.8V329.03h2.373V336.8Z" transform="translate(-259.392 -328.933)" fill="#00325b"/>
      </g>
      <g id="Group_2349" data-name="Group 2349" transform="translate(34.999 0.097)">
        <path id="Path_14081" data-name="Path 14081" d="M301.185,329.03v4.6c0,1.144.449,1.328,1.915,1.328h1.343c1.218,0,1.681-.226,1.681-1.328v-4.6H308.5v5.342c0,1.924-.995,2.522-3.291,2.522h-2.652c-2.757,0-3.742-.565-3.742-2.522V329.03Z" transform="translate(-298.811 -329.03)" fill="#00325b"/>
        <path id="Path_14082" data-name="Path 14082" d="M320.718,336.8v-5.866h-3.249v-1.9h8.87v1.9H323.09V336.8Z" transform="translate(-304.899 -329.03)" fill="#00325b"/>
        <path id="Path_14083" data-name="Path 14083" d="M332.057,336.8l4.242-7.768h3.023l4.168,7.768h-2.606l-.748-1.294H335.4l-.759,1.294Zm7.225-3.164-1.507-2.745-1.475,2.745Z" transform="translate(-309.66 -329.03)" fill="#00325b"/>
        <path id="Path_14084" data-name="Path 14084" d="M353,336.8V329.03h2.373v2.852h4.862V329.03h2.383V336.8h-2.383v-3.035H355.37V336.8Z" transform="translate(-316.492 -329.03)" fill="#00325b"/>
      </g>
    </g>
  </g>
</svg>